<svg width="146" height="24" viewBox="0 0 146 24" fill="none" xmlns="http://www.w3.org/2000/svg">
<g clip-path="url(#clip0_1718_25445)">
<path d="M40.0132 16.809V8.55303C40.0132 6.97603 40.3792 5.73303 41.1112 4.82303C41.8442 3.91303 42.7612 3.45803 43.8612 3.45803C46.0192 3.45803 47.0982 5.03503 47.0982 8.18903V16.809H50.8802V7.22903C50.8802 4.81403 50.3802 3.00903 49.3772 1.81203C48.3752 0.615029 46.9442 0.0170286 45.0832 0.0170286C43.8612 0.0170286 42.7432 0.251029 41.7312 0.720029C40.7249 1.18342 39.8463 1.88456 39.1712 2.76303H39.1052C38.1252 0.932029 36.4852 0.0170286 34.1832 0.0170286C33.2142 0.0170286 32.2812 0.234029 31.3842 0.670029C30.4725 1.11731 29.6695 1.75823 29.0312 2.54803H28.9812V0.265029H25.1992V16.792H28.9812V8.55303C28.9812 6.97603 29.3532 5.73303 30.0962 4.82303C30.8392 3.91303 31.7892 3.45803 32.9452 3.45803C35.1352 3.45803 36.2312 5.03503 36.2312 8.18903V16.809H40.0132V16.809ZM61.1142 17.057C63.3602 17.057 65.1112 16.23 66.3662 14.575H66.4162V16.792H70.0322V0.265029H66.2502V2.25003H66.1842C64.9292 0.761029 63.2292 0.0170286 61.0812 0.0170286C60.0194 0.00948827 58.9674 0.219928 57.9902 0.635325C57.0131 1.05072 56.1315 1.66224 55.4002 2.43203C54.6952 3.18203 54.1402 4.09203 53.7322 5.16203C53.3196 6.2616 53.1125 7.42762 53.1212 8.60203C53.1212 9.86003 53.3242 11.018 53.7312 12.077C54.1392 13.136 54.6952 14.029 55.4002 14.757C56.1173 15.4934 56.9809 16.0712 57.9352 16.453C58.9455 16.8605 60.0259 17.0657 61.1152 17.057H61.1142ZM61.7092 13.616C60.3102 13.616 59.1712 13.15 58.2902 12.218C57.4102 11.286 56.9692 10.086 56.9692 8.61903C56.9692 7.06403 57.4232 5.81503 58.3312 4.87203C59.2402 3.92903 60.3712 3.45803 61.7252 3.45803C63.0682 3.45803 64.1832 3.95103 65.0702 4.93803C65.9562 5.92603 66.4002 7.15303 66.4002 8.61903C66.4002 10.086 65.9452 11.286 65.0372 12.218C64.1282 13.15 63.0192 13.616 61.7092 13.616V13.616ZM88.8212 16.809V7.06403C88.8212 4.67103 88.2852 2.89803 87.2112 1.74503C86.1392 0.593029 84.6542 0.0170286 82.7612 0.0170286C81.7082 0.0113238 80.6661 0.231258 79.7052 0.662029C78.7493 1.09092 77.9026 1.73015 77.2282 2.53203H77.1782V0.264029H73.3962V16.791H77.1782V8.48703C77.1782 6.89903 77.5662 5.66403 78.3422 4.78103C79.1192 3.89903 80.1562 3.45803 81.4552 3.45803C82.0502 3.45803 82.5592 3.53503 82.9832 3.68903C83.4072 3.84403 83.7792 4.09503 84.0982 4.44203C84.4182 4.79003 84.6542 5.26103 84.8082 5.85703C84.9622 6.45203 85.0392 7.18003 85.0392 8.04003V16.809H88.8212V16.809ZM99.0392 17.057C101.285 17.057 103.035 16.23 104.291 14.575H104.341V16.792H107.957V0.265029H104.175V2.25003H104.109C102.854 0.761029 101.153 0.0170286 99.0062 0.0170286C97.9443 0.00935115 96.8921 0.219725 95.9147 0.635126C94.9373 1.05053 94.0557 1.66211 93.3242 2.43203C92.6202 3.18203 92.0642 4.09203 91.6562 5.16203C91.244 6.26167 91.0372 7.42768 91.0462 8.60203C91.0462 9.86003 91.2492 11.018 91.6562 12.077C92.0642 13.136 92.6202 14.029 93.3242 14.757C94.0416 15.4936 94.9055 16.0713 95.8602 16.453C96.8702 16.8603 97.9502 17.0656 99.0392 17.057V17.057ZM99.6332 13.616C98.2352 13.616 97.0952 13.15 96.2152 12.218C95.3342 11.286 94.8932 10.086 94.8932 8.61903C94.8932 7.06403 95.3482 5.81503 96.2562 4.87203C97.1642 3.92903 98.2962 3.45803 99.6502 3.45803C100.993 3.45803 102.108 3.95103 102.994 4.93803C103.88 5.92603 104.324 7.15303 104.324 8.61903C104.324 10.086 103.869 11.286 102.961 12.218C102.053 13.15 100.943 13.616 99.6332 13.616V13.616ZM118.703 23.741C119.903 23.741 120.977 23.601 121.923 23.319C122.87 23.038 123.666 22.646 124.31 22.144C124.958 21.6382 125.502 21.0121 125.912 20.3C126.341 19.5588 126.65 18.7546 126.828 17.917C127.016 17.057 127.109 16.114 127.109 15.088V0.265029H123.327V2.00203H123.261C122.584 1.35403 121.784 0.847504 120.908 0.512029C120.026 0.171062 119.087 -0.00256463 118.141 2.86254e-05C116.633 2.86254e-05 115.279 0.358029 114.079 1.07503C112.879 1.79203 111.945 2.78803 111.279 4.06203C110.613 5.33503 110.28 6.76703 110.28 8.35503C110.28 9.96503 110.63 11.393 111.329 12.64C112.028 13.886 112.989 14.843 114.211 15.51C115.433 16.177 116.809 16.511 118.34 16.511C120.387 16.511 122.056 15.838 123.344 14.493H123.41V16.246C123.41 17.416 122.98 18.386 122.122 19.158C121.262 19.93 120.052 20.316 118.488 20.316C117.42 20.316 116.482 20.184 115.672 19.919C114.863 19.654 113.93 19.241 112.873 18.679L111.981 22.02C112.906 22.572 113.947 22.996 115.103 23.294C116.259 23.592 117.459 23.741 118.703 23.741V23.741ZM118.835 13.021C117.47 13.021 116.344 12.587 115.458 11.721C114.571 10.856 114.128 9.69503 114.128 8.23903C114.128 6.83903 114.563 5.69703 115.433 4.81403C116.303 3.93203 117.437 3.49103 118.835 3.49103C120.167 3.49103 121.277 3.92603 122.163 4.79803C123.049 5.66903 123.493 6.80003 123.493 8.18903C123.493 9.59003 123.06 10.745 122.196 11.655C121.332 12.565 120.211 13.02 118.835 13.02V13.021ZM137.921 17.057C139.463 17.057 140.82 16.776 141.992 16.213C143.165 15.651 144.125 14.89 144.874 13.93L142.232 11.664C141.197 12.965 139.826 13.616 138.119 13.616C136.909 13.616 135.882 13.279 135.039 12.606C134.197 11.934 133.655 11.013 133.412 9.84403H145.436C145.502 9.44703 145.535 8.94403 145.535 8.33803C145.535 6.73903 145.21 5.31103 144.56 4.05303C143.93 2.81595 142.955 1.78764 141.753 1.09203C140.531 0.375029 139.121 0.0170286 137.525 0.0170286C136.432 0.00883848 135.348 0.219648 134.337 0.637029C133.347 1.05103 132.493 1.62703 131.777 2.36603C131.062 3.10503 130.5 4.00403 130.093 5.06203C129.686 6.12203 129.482 7.27403 129.482 8.52003C129.482 10.208 129.851 11.705 130.588 13.012C131.326 14.319 132.334 15.32 133.611 16.015C134.888 16.71 136.325 17.057 137.921 17.057ZM141.736 6.78303H133.479C133.743 5.72403 134.255 4.90503 135.014 4.32603C135.774 3.74703 136.677 3.45803 137.723 3.45803C138.78 3.45803 139.653 3.75603 140.341 4.35103C141.029 4.94703 141.494 5.75703 141.736 6.78303Z" fill="white"/>
<path fill-rule="evenodd" clip-rule="evenodd" d="M2.786 10.286C4.324 10.286 5.571 11.565 5.571 13.143C5.571 14.72 4.324 16 2.786 16C1.247 16 0 14.72 0 13.143C0 11.565 1.247 10.286 2.786 10.286V10.286ZM2.786 0C4.324 0 5.57 1.28 5.57 2.857C5.57 4.435 4.323 5.714 2.785 5.714C1.247 5.714 0 4.435 0 2.857C0 1.28 1.247 0 2.786 0ZM12.814 0C14.353 0 15.6 1.28 15.6 2.857C15.6 4.435 14.353 5.714 12.814 5.714C11.276 5.714 10.029 4.435 10.029 2.857C10.029 1.28 11.276 0 12.814 0Z" fill="#F3603C"/>
<path opacity="0.5" d="M12.8133 16.1139C14.352 16.1139 15.5993 14.8348 15.5993 13.2569C15.5993 11.679 14.352 10.3999 12.8133 10.3999C11.2747 10.3999 10.0273 11.679 10.0273 13.2569C10.0273 14.8348 11.2747 16.1139 12.8133 16.1139Z" fill="#F3603C"/>
</g>
<defs>
<clipPath id="clip0_1718_25445">
<rect width="146" height="24" fill="white"/>
</clipPath>
</defs>
</svg>
